<?xml version="1.0" standalone="no"?>
<!DOCTYPE svg PUBLIC "-//W3C//DTD SVG 20010904//EN"
 "http://www.w3.org/TR/2001/REC-SVG-20010904/DTD/svg10.dtd">
<svg version="1.0" xmlns="http://www.w3.org/2000/svg"
 width="625.000000pt" height="625.000000pt" viewBox="0 0 625.000000 625.000000"
 preserveAspectRatio="xMidYMid meet">
<metadata>
Created by potrace 1.14, written by Peter Selinger 2001-2017
</metadata>
<g transform="translate(0.000000,625.000000) scale(0.100000,-0.100000)"
fill="#000000" stroke="none">
<path d="M2853 3742 l-93 -15 0 -163 0 -162 -42 15 c-70 24 -191 14 -257 -22
-112 -61 -156 -157 -156 -340 0 -108 3 -125 26 -175 51 -108 127 -167 247
-191 75 -14 217 -7 321 17 l71 16 -2 516 c-2 333 -7 516 -13 517 -5 1 -52 -5
-102 -13z m-120 -501 l27 -11 0 -185 0 -185 -37 -1 c-115 -5 -152 12 -188 85
-40 79 -32 216 14 270 37 44 111 54 184 27z"/>
<path d="M4344 3706 c-29 -29 -34 -41 -34 -83 0 -55 17 -86 60 -108 93 -48
189 19 177 124 -7 65 -49 101 -118 101 -45 0 -55 -4 -85 -34z"/>
<path d="M1735 3429 c-38 -5 -83 -13 -100 -17 -28 -8 -30 -11 -28 -58 1 -27 4
-64 8 -82 6 -31 9 -33 33 -28 63 15 212 19 242 6 32 -13 60 -55 60 -88 0 -17
-9 -19 -107 -19 -114 -1 -192 -21 -246 -63 -82 -65 -90 -237 -14 -318 62 -67
192 -93 374 -74 65 6 135 17 156 23 l39 10 -4 262 c-3 224 -6 268 -21 302 -38
84 -104 129 -214 145 -76 11 -80 11 -178 -1z m183 -428 l32 -1 0 -74 0 -75
-45 -7 c-52 -7 -110 1 -141 21 -26 16 -36 60 -22 91 14 30 80 55 128 48 8 -1
30 -3 48 -3z"/>
<path d="M3240 3412 l-85 -17 -3 -347 -2 -348 105 0 105 0 0 274 0 274 40 7
c56 9 106 -10 128 -48 14 -27 17 -67 20 -269 l4 -238 99 0 100 0 -2 268 -2
267 42 14 c54 17 96 6 125 -32 20 -27 21 -43 24 -273 l3 -244 104 0 105 0 0
228 c0 344 -21 415 -140 478 -28 15 -57 19 -140 19 -94 0 -111 -3 -159 -27
l-54 -27 -51 27 c-46 24 -63 27 -166 29 -75 1 -144 -4 -200 -15z"/>
<path d="M4848 3420 c-31 -5 -72 -13 -90 -18 l-33 -8 -3 -347 -2 -347 105 0
106 0 -3 274 -3 274 48 6 c70 10 123 -8 144 -47 15 -27 18 -67 21 -269 l4
-238 99 0 99 0 0 248 c0 268 -6 309 -54 382 -17 25 -45 48 -83 67 -53 26 -68
28 -178 30 -66 1 -146 -3 -177 -7z"/>
<path d="M4330 3060 l0 -360 100 0 100 0 0 360 0 360 -100 0 -100 0 0 -360z"/>
</g>
</svg>
